<svg width="20" height="23" viewBox="0 0 20 23" fill="none" xmlns="http://www.w3.org/2000/svg">
<path d="M0.41964 10.5625C-0.138395 11.1205 -0.138395 12.0268 0.41964 12.5848L7.5625 19.7277C8.12053 20.2857 9.02678 20.2857 9.58482 19.7277C10.1429 19.1696 10.1429 18.2634 9.58482 17.7053L4.875 13L18.5714 13C19.3616 13 20 12.3616 20 11.5714C20 10.7812 19.3616 10.1428 18.5714 10.1428L4.87946 10.1428L9.58036 5.43748C10.1384 4.87944 10.1384 3.97319 9.58036 3.41515C9.02232 2.85712 8.11607 2.85712 7.55803 3.41515L0.415176 10.558L0.41964 10.5625Z" fill="black"/>
</svg>
