<svg width="22" height="22" viewBox="0 0 22 22" fill="none" xmlns="http://www.w3.org/2000/svg">
<g clip-path="url(#clip0_136_147)">
<path d="M3.4375 4.125V4.8125C3.4375 5.57305 4.05195 6.1875 4.8125 6.1875H7.425C8.13828 4.9543 9.47031 4.125 11 4.125H13.6641C13.359 2.93906 12.2805 2.0625 11 2.0625H9.25547C9.09219 0.898047 8.08672 0 6.875 0C5.66328 0 4.65781 0.898047 4.49453 2.0625H2.75C1.2332 2.0625 0 3.2957 0 4.8125V16.5C0 18.0168 1.2332 19.25 2.75 19.25H6.875V17.1875H2.75C2.37188 17.1875 2.0625 16.8781 2.0625 16.5V4.8125C2.0625 4.43437 2.37188 4.125 2.75 4.125H3.4375ZM6.1875 2.40625C6.1875 2.22391 6.25993 2.04905 6.38886 1.92011C6.5178 1.79118 6.69266 1.71875 6.875 1.71875C7.05734 1.71875 7.2322 1.79118 7.36114 1.92011C7.49007 2.04905 7.5625 2.22391 7.5625 2.40625C7.5625 2.58859 7.49007 2.76345 7.36114 2.89239C7.2322 3.02132 7.05734 3.09375 6.875 3.09375C6.69266 3.09375 6.5178 3.02132 6.38886 2.89239C6.25993 2.76345 6.1875 2.58859 6.1875 2.40625ZM11 19.9375C10.6219 19.9375 10.3125 19.6281 10.3125 19.25V8.25C10.3125 7.87187 10.6219 7.5625 11 7.5625H16.5V9.625C16.5 10.3855 17.1145 11 17.875 11H19.9375V19.25C19.9375 19.6281 19.6281 19.9375 19.25 19.9375H11ZM19.25 22C20.7668 22 22 20.7668 22 19.25V9.79258C22 9.24687 21.7809 8.72266 21.3941 8.33594L19.1641 6.10586C18.7773 5.71914 18.2531 5.5 17.7074 5.5H11C9.4832 5.5 8.25 6.7332 8.25 8.25V19.25C8.25 20.7668 9.4832 22 11 22H19.25Z" fill="#00214D"/>
</g>
<defs>
<clipPath id="clip0_136_147">
<rect width="22" height="22" fill="white"/>
</clipPath>
</defs>
</svg>
