<svg width="28" height="22" viewBox="0 0 28 22" fill="none" xmlns="http://www.w3.org/2000/svg">
<path d="M24.393 11.5028C26.8418 9.07508 26.8418 5.14344 24.393 2.7157C22.2259 0.567263 18.8105 0.287966 16.3183 2.05398L16.249 2.10125C15.6248 2.54383 15.4818 3.4032 15.9282 4.01765C16.3746 4.63211 17.2415 4.7782 17.8613 4.33562L17.9306 4.28836C19.3219 3.30437 21.2247 3.45906 22.4296 4.65789C23.7949 6.0114 23.7949 8.20281 22.4296 9.55633L17.5666 14.386C16.2013 15.7395 13.9908 15.7395 12.6255 14.386C11.4163 13.1872 11.2602 11.3009 12.2528 9.92586L12.3005 9.85711C12.7469 9.23836 12.5995 8.37898 11.9797 7.9407C11.3599 7.50242 10.4887 7.64422 10.0467 8.25867L9.99898 8.32742C8.21327 10.7938 8.495 14.1798 10.6621 16.3282C13.111 18.7559 17.0768 18.7559 19.5256 16.3282L24.393 11.5028ZM1.87228 10.4973C-0.576567 12.9251 -0.576567 16.8567 1.87228 19.2845C4.0394 21.4329 7.45478 21.7122 9.94697 19.9462L10.0163 19.8989C10.6404 19.4563 10.7835 18.597 10.337 17.9825C9.89062 17.368 9.02377 17.222 8.40398 17.6645L8.33463 17.7118C6.94334 18.6958 5.04061 18.5411 3.83569 17.3423C2.4704 15.9845 2.4704 13.793 3.83569 12.4395L8.69871 7.61414C10.064 6.26062 12.2745 6.26062 13.6397 7.61414C14.849 8.81297 15.005 10.6993 14.0125 12.0786L13.9648 12.1473C13.5184 12.7661 13.6657 13.6255 14.2855 14.0637C14.9053 14.502 15.7765 14.3602 16.2186 13.7458L16.2663 13.677C18.052 11.2063 17.7703 7.82039 15.6031 5.67195C13.1543 3.24422 9.18848 3.24422 6.73963 5.67195L1.87228 10.4973Z" fill="#00214D"/>
</svg>
